#!OML:ASF E:\acrobat2\Project_11_07_03\Capture day 1\Session 1\Acrobat.ASF
:FULLY-SPECIFIED
:DEGREES
83
root 10.2534 16.66 32.3491 -179.931 -1.15555 180.666
lowerback -5.65629 0.167025 -0.306951
upperback -2.93853 0.0712038 -0.55714
thorax 0.149998 -0.0378069 -0.395536
lowerneck 1.64215 -1.58458 -1.25289
upperneck 3.46216 -2.34174 3.62032
head 0.852465 -1.20841 1.31968
rclavicle -1.49089e-016 -6.36111e-015
rhumerus -46.5522 17.0731 -95.3603
rradius 27.6365
rwrist 5.0202
rhand -4.19882 -41.1365
rfingers 7.12502
rthumb 21.563 -69.9561
lclavicle -1.49089e-016 -6.36111e-015
lhumerus -39.541 -22.1258 96.4876
lradius 20.9392
lwrist 9.68892
lhand -3.70091 -13.1961
lfingers 7.12502
lthumb 22.0411 15.5679
rfemur 15.7376 28.8664 0.467194
rtibia -6.53135
rfoot -48.3323 -28.6542
rtoes 23.3507
lfemur 13.4868 -23.9542 3.6665
ltibia -7.66532
lfoot -45.1803 -9.58295
ltoes 57.2755
84
root 10.2535 16.6597 32.3494 -179.913 -1.28202 180.665
lowerback -5.66915 0.121456 -0.313666
upperback -2.9423 0.0104085 -0.561026
thorax 0.15296 -0.0683744 -0.399206
lowerneck 1.70988 -1.5833 -1.23571
upperneck 3.39007 -2.33674 3.6127
head 0.818172 -1.20659 1.31494
rclavicle 1.83876e-015 1.98785e-015
rhumerus -46.5444 17.0812 -95.3732
rradius 27.6333
rwrist 5.04771
rhand -3.86329 -41.4638
rfingers 7.12502
rthumb 21.8852 -70.2461
lclavicle 1.83876e-015 1.98785e-015
lhumerus -39.5399 -22.1038 96.4806
lradius 20.9254
lwrist 9.66043
lhand -3.75151 -13.2158
lfingers 7.12502
lthumb 21.9926 15.5539
rfemur 15.8501 28.9403 0.555639
rtibia -6.58289
rfoot -48.5662 -28.6867
rtoes 23.4781
lfemur 13.3571 -23.9087 3.74457
ltibia -7.62853
lfoot -45.0004 -9.69117
ltoes 57.2884
85
root 10.2536 16.6595 32.3498 -179.888 -1.40359 180.663
lowerback -5.68295 0.0788989 -0.319175
upperback -2.94905 -0.0467075 -0.56673
thorax 0.153413 -0.0972453 -0.405224
lowerneck 1.75031 -1.58353 -1.21883
upperneck 3.3551 -2.33554 3.60566
head 0.800137 -1.20641 1.31017
rclavicle 1.14301e-015 -2.38542e-015
rhumerus -46.5207 17.0562 -95.3609
rradius 27.6254
rwrist 5.12369
rhand -3.55013 -41.6837
rfingers 7.12502
rthumb 22.1859 -70.4305
lclavicle 1.14301e-015 -2.38542e-015
lhumerus -39.5493 -22.0866 96.4754
lradius 20.9186
lwrist 9.61251
lhand -3.82592 -13.2593
lfingers 7.12502
lthumb 21.9211 15.5188
rfemur 15.9531 29.0241 0.643859
rtibia -6.62994
rfoot -48.7969 -28.7258
rtoes 23.5721
lfemur 13.2251 -23.8668 3.82309
ltibia -7.58757
lfoot -44.8378 -9.75733
ltoes 57.3136
86
root 10.2538 16.6595 32.3509 -179.868 -1.4506 180.659
lowerback -5.68186 0.0610951 -0.327814
upperback -2.95757 -0.070737 -0.568718
thorax 0.143923 -0.109474 -0.403766
lowerneck 1.76468 -1.58585 -1.20103
upperneck 3.35379 -2.3383 3.59114
head 0.796905 -1.20793 1.30261
rclavicle -3.52843e-015 1.03368e-014
rhumerus -46.4908 17.0182 -95.329
rradius 27.6298
rwrist 5.25579
rhand -3.29807 -41.8052
rfingers 7.12502
rthumb 22.4279 -70.5231
lclavicle -3.52843e-015 1.03368e-014
lhumerus -39.5606 -22.0634 96.473
lradius 20.9152
lwrist 9.55479
lhand -3.90787 -13.3132
lfingers 7.12502
lthumb 21.8424 15.4741
rfemur 15.9755 29.0584 0.667997
rtibia -6.6439
rfoot -48.8614 -28.7676
rtoes 23.5268
lfemur 13.1586 -23.8554 3.85442
ltibia -7.56375
lfoot -44.7876 -9.76758
ltoes 57.3435
87
root 10.2539 16.6594 32.352 -179.847 -1.47737 180.654
lowerback -5.68312 0.0492359 -0.34067
upperback -2.96707 -0.0867592 -0.566828
thorax 0.134796 -0.117672 -0.39551
lowerneck 1.75852 -1.59304 -1.18234
upperneck 3.38615 -2.34879 3.56639
head 0.807594 -1.21312 1.29143
rclavicle 2.98177e-016 -3.18055e-015
rhumerus -46.4519 16.9606 -95.2725
rradius 27.638
rwrist 5.45033
rhand -3.11632 -41.8208
rfingers 7.12502
rthumb 22.6023 -70.5176
lclavicle 2.98177e-016 -3.18055e-015
lhumerus -39.5716 -22.0377 96.4746
lradius 20.9142
lwrist 9.50712
lhand -3.9751 -13.3645
lfingers 7.12502
lthumb 21.7779 15.4303
rfemur 15.9727 29.0713 0.669022
rtibia -6.65056
rfoot -48.8793 -28.8051
rtoes 23.4594
lfemur 13.1082 -23.854 3.87176
ltibia -7.54591
lfoot -44.7794 -9.75568
ltoes 57.3865
88
root 10.254 16.6592 32.3527 -179.827 -1.49986 180.65
lowerback -5.68474 0.0371979 -0.35844
upperback -2.97688 -0.102804 -0.560022
thorax 0.125557 -0.12579 -0.379454
lowerneck 1.74394 -1.60461 -1.16325
upperneck 3.43316 -2.36547 3.53269
head 0.824253 -1.22134 1.27724
rclavicle -1.98785e-016 -2.78299e-015
rhumerus -46.4151 16.9099 -95.2204
rradius 27.6386
rwrist 5.6747
rhand -3.04507 -41.7977
rfingers 7.12502
rthumb 22.6707 -70.4861
lclavicle -1.98785e-016 -2.78299e-015
lhumerus -39.5782 -22.0063 96.4761
lradius 20.916
lwrist 9.49523
lhand -3.99344 -13.3954
lfingers 7.12502
lthumb 21.7603 15.4014
rfemur 15.9675 29.0746 0.665653
rtibia -6.6555
rfoot -48.8985 -28.8252
rtoes 23.4281
lfemur 13.0656 -23.8568 3.88472
ltibia -7.53206
lfoot -44.7874 -9.73934
ltoes 57.4308
89
root 10.2542 16.659 32.3532 -179.815 -1.51713 180.653
lowerback -5.679 0.0254172 -0.373318
upperback -2.98604 -0.118486 -0.547614
thorax 0.112931 -0.133606 -0.359229
lowerneck 1.732 -1.62106 -1.137
upperneck 3.47683 -2.38775 3.48288
head 0.839196 -1.23233 1.25675
rclavicle 8.44835e-016 -1.98785e-015
rhumerus -46.376 16.8651 -95.1662
rradius 27.6029
rwrist 5.83483
rhand -3.08371 -41.6623
rfingers 7.12502
rthumb 22.6336 -70.3552
lclavicle 8.44835e-016 -1.98785e-015
lhumerus -39.5949 -21.9961 96.4965
lradius 20.9231
lwrist 9.50441
lhand -4.02819 -13.4179
lfingers 7.12502
lthumb 21.7269 15.3828
rfemur 15.9693 29.08 0.67478
rtibia -6.65953
rfoot -48.9257 -28.8301
rtoes 23.4291
lfemur 13.0376 -23.8611 3.90088
ltibia -7.52538
lfoot -44.8016 -9.71524
ltoes 57.4654
90
root 10.2545 16.6586 32.3536 -179.809 -1.53416 180.659
lowerback -5.66725 0.0132062 -0.388289
upperback -2.99397 -0.134566 -0.533887
thorax 0.0982454 -0.141511 -0.337599
lowerneck 1.73317 -1.64023 -1.09899
upperneck 3.50041 -2.4119 3.41669
head 0.845288 -1.24424 1.22922
rclavicle 1.59028e-015 -3.57812e-015
rhumerus -46.363 16.8759 -95.163
rradius 27.5569
rwrist 5.86373
rhand -3.27748 -41.5162
rfingers 7.12502
rthumb 22.4476 -70.2317
lclavicle 1.59028e-015 -3.57812e-015
lhumerus -39.608 -21.9908 96.5145
lradius 20.9344
lwrist 9.54915
lhand -4.02788 -13.4327
lfingers 7.12502
lthumb 21.7272 15.3679
rfemur 15.9826 29.0948 0.695427
rtibia -6.66588
rfoot -48.9659 -28.8248
rtoes 23.4551
lfemur 13.0157 -23.8565 3.92131
ltibia -7.52216
lfoot -44.7932 -9.70373
ltoes 57.4922
91
root 10.2549 16.6583 32.3541 -179.798 -1.5557 180.653
lowerback -5.65737 0.000410268 -0.416555
upperback -3.00453 -0.15108 -0.523804
thorax 0.0818992 -0.149647 -0.31227
lowerneck 1.74899 -1.65812 -1.05673
upperneck 3.50633 -2.43347 3.34879
head 0.843253 -1.25499 1.20061
rclavicle -5.31749e-015 -7.15625e-015
rhumerus -46.3726 16.918 -95.1906
rradius 27.4962
rwrist 5.76309
rhand -3.58902 -41.3085
rfingers 7.12502
rthumb 22.1486 -70.0597
lclavicle -5.31749e-015 -7.15625e-015
lhumerus -39.639 -22.0258 96.5601
lradius 20.9515
lwrist 9.58342
lhand -4.07 -13.4377
lfingers 7.12502
lthumb 21.6867 15.3676
rfemur 15.9968 29.1151 0.705005
rtibia -6.67519
rfoot -49.0236 -28.8069
rtoes 23.5307
lfemur 12.9844 -23.8462 3.93433
ltibia -7.51636
lfoot -44.757 -9.71594
ltoes 57.5044
